<svg width="23" height="23" viewBox="0 0 23 23" fill="none" xmlns="http://www.w3.org/2000/svg">
<path opacity="0.9" d="M11.5 0C8.37377 0 7.98415 0.0150956 6.76069 0.0668521C5.53219 0.127235 4.70121 0.317727 3.968 0.602388C3.20061 0.892095 2.50563 1.34568 1.93152 1.93152C1.34405 2.50429 0.890209 3.19965 0.602388 3.968C0.317727 4.70121 0.127235 5.53219 0.0668521 6.76069C0.0115014 7.98487 0 8.37377 0 11.5C0 14.6262 0.0150956 15.0158 0.0668521 16.2393C0.127235 17.4642 0.317727 18.2988 0.602388 19.032C0.892095 19.7994 1.34568 20.4944 1.93152 21.0685C2.50429 21.656 3.19965 22.1098 3.968 22.3976C4.70121 22.6787 5.53579 22.8728 6.76069 22.9331C7.98487 22.9885 8.37377 23 11.5 23C14.6262 23 15.0158 22.9849 16.2393 22.9331C17.4642 22.8728 18.2988 22.678 19.032 22.3976C19.7994 22.1079 20.4944 21.6543 21.0685 21.0685C21.6567 20.4963 22.1107 19.8008 22.3976 19.032C22.6787 18.2988 22.8728 17.4642 22.9331 16.2393C22.9885 15.0151 23 14.6262 23 11.5C23 8.37377 22.9849 7.98415 22.9331 6.76069C22.8728 5.53579 22.678 4.6969 22.3976 3.968C22.1079 3.20061 21.6543 2.50563 21.0685 1.93152C20.4963 1.34329 19.8008 0.889334 19.032 0.602388C18.2988 0.317727 17.4642 0.127235 16.2393 0.0668521C15.0151 0.0115014 14.6262 0 11.5 0ZM11.5 2.07026C14.5702 2.07026 14.9368 2.08535 16.1502 2.13711C17.2694 2.18959 17.879 2.37648 18.2837 2.53463C18.784 2.71932 19.2369 3.01327 19.6092 3.39508C19.9904 3.76588 20.2832 4.21768 20.4661 4.71703C20.6242 5.12173 20.8111 5.73131 20.8636 6.85054C20.9154 8.06395 20.9305 8.43127 20.9305 11.5007C20.9305 14.5702 20.9154 14.9375 20.8593 16.1509C20.7989 17.2701 20.612 17.8797 20.4546 18.2844C20.2368 18.8243 19.9938 19.2017 19.5927 19.61C19.2191 19.9894 18.7665 20.2819 18.2672 20.4668C17.8675 20.625 17.2493 20.8119 16.1257 20.8643C14.9059 20.9161 14.5464 20.9312 11.4684 20.9312C8.3903 20.9312 8.0316 20.9161 6.81029 20.86C5.69106 20.7996 5.07357 20.6127 4.66887 20.4553C4.12255 20.2375 3.74803 19.9945 3.34692 19.5934C2.94221 19.1887 2.68487 18.8034 2.48647 18.2679C2.32545 17.8682 2.14142 17.25 2.08176 16.1265C2.04079 14.921 2.02138 14.5472 2.02138 11.4835C2.02138 8.42121 2.04079 8.04669 2.08176 6.8261C2.14142 5.70256 2.32545 5.08579 2.48647 4.68468C2.68487 4.13764 2.94293 3.76385 3.34692 3.35914C3.74731 2.95874 4.12255 2.69996 4.66887 2.49725C5.07357 2.33982 5.67596 2.15293 6.79951 2.09686C8.01938 2.05301 8.3788 2.03719 11.4526 2.03719L11.5 2.07026ZM11.5 5.59761C10.7246 5.59732 9.95678 5.74984 9.24037 6.04643C8.52395 6.34303 7.87301 6.77789 7.32473 7.32617C6.77645 7.87444 6.34159 8.52539 6.04499 9.2418C5.7484 9.95822 5.59589 10.7261 5.59617 11.5014C5.59589 12.2768 5.7484 13.0447 6.04499 13.7611C6.34159 14.4775 6.77645 15.1284 7.32473 15.6767C7.87301 16.225 8.52395 16.6598 9.24037 16.9564C9.95678 17.253 10.7246 17.4056 11.5 17.4053C12.2754 17.4056 13.0432 17.253 13.7596 16.9564C14.476 16.6598 15.127 16.225 15.6753 15.6767C16.2235 15.1284 16.6584 14.4775 16.955 13.7611C17.2516 13.0447 17.4041 12.2768 17.4038 11.5014C17.4041 10.7261 17.2516 9.95822 16.955 9.2418C16.6584 8.52539 16.2235 7.87444 15.6753 7.32617C15.127 6.77789 14.476 6.34303 13.7596 6.04643C13.0432 5.74984 12.2754 5.59732 11.5 5.59761V5.59761ZM11.5 15.335C9.38086 15.335 7.66643 13.6206 7.66643 11.5014C7.66643 9.3823 9.38086 7.66786 11.5 7.66786C13.6191 7.66786 15.3336 9.3823 15.3336 11.5014C15.3336 13.6206 13.6191 15.335 11.5 15.335ZM19.0219 5.36183C19.0216 5.72819 18.8758 6.07943 18.6166 6.33835C18.3574 6.59728 18.006 6.74272 17.6396 6.74272C17.4585 6.74272 17.2791 6.70704 17.1117 6.63771C16.9444 6.56839 16.7923 6.46678 16.6642 6.33869C16.5361 6.21059 16.4345 6.05852 16.3652 5.89116C16.2958 5.7238 16.2602 5.54442 16.2602 5.36326C16.2602 5.18211 16.2958 5.00273 16.3652 4.83537C16.4345 4.66801 16.5361 4.51594 16.6642 4.38784C16.7923 4.25975 16.9444 4.15814 17.1117 4.08882C17.2791 4.01949 17.4585 3.98381 17.6396 3.98381C18.3994 3.98381 19.0219 4.60201 19.0219 5.36183V5.36183Z" fill="#FF5722"/>
</svg>
