<svg width="60" height="50" viewBox="0 0 60 50" fill="none" xmlns="http://www.w3.org/2000/svg">
<path d="M22.2737 3.125V4.3125C19.6642 3.28125 16.8662 2.75 14.0682 2.75C9.60389 2.75 5.13961 4.09375 1.33553 6.78125C-0.267838 7.90625 -0.456469 10.1875 0.926831 11.5625L9.00656 19.5938H12.4962V23.0625C15.2 25.75 18.7211 27.1562 22.2737 27.3125V34.375H15.9859C14.2568 34.375 12.8421 35.7813 12.8421 37.5V43.75C12.8421 47.1875 15.6715 50 19.1298 50H50.5684C55.7872 50 60 45.8125 60 40.625V3.125C60 1.40625 58.5853 0 56.8561 0H25.4175C23.6884 0 22.2737 1.40625 22.2737 3.125ZM18.784 20.0313V13.3125H11.616L8.34635 10.0625C10.1718 9.36224 12.1115 9.00207 14.0682 9C18.281 9 22.2108 10.625 25.1974 13.5625L29.6303 17.9687L29.0015 18.5937C28.2116 19.3865 27.2714 20.0156 26.2353 20.4447C25.1992 20.8738 24.0878 21.0944 22.9653 21.0938C21.4877 21.0938 20.0415 20.7188 18.784 20.0313ZM53.7123 40.625C53.7123 42.3438 52.2975 43.75 50.5684 43.75C48.8393 43.75 47.4246 42.3438 47.4246 40.625V37.5C47.4246 35.7813 46.0098 34.375 44.2807 34.375H28.5614V26.2813C30.3534 25.5625 32.0196 24.5 33.4658 23.0625L34.0946 22.4375L42.9917 31.25H47.4246V26.8438L28.5614 8.1875V6.25H53.7123V40.625Z" fill="white"/>
</svg>
