<svg width="60" height="50" fill="none" xmlns="http://www.w3.org/2000/svg"><path d="M22.27 3.13V4.3a22.38 22.38 0 00-8.2-1.56c-4.47 0-8.93 1.34-12.73 4.03a3.12 3.12 0 00-.41 4.78L9 19.6h3.49v3.47c2.7 2.69 6.22 4.1 9.77 4.25v7.07H16a3.14 3.14 0 00-3.15 3.12v6.25A6.29 6.29 0 0019.13 50h31.44A9.4 9.4 0 0060 40.62V3.13A3.14 3.14 0 0056.86 0H25.42a3.14 3.14 0 00-3.15 3.13zm-3.49 16.9v-6.72h-7.16l-3.27-3.25C10.17 9.36 12.1 9 14.07 9c4.21 0 8.14 1.63 11.13 4.56l4.43 4.4-.63.63a8.49 8.49 0 01-6.03 2.5 8.75 8.75 0 01-4.19-1.06zm34.93 20.6a3.14 3.14 0 01-6.29 0V37.5a3.14 3.14 0 00-3.14-3.13H28.56v-8.09c1.8-.72 3.46-1.78 4.9-3.22l.63-.62 8.9 8.81h4.43v-4.4L28.56 8.18V6.25h25.15v34.38z" fill="#fff"/></svg>