<svg width="60" height="60" viewBox="0 0 60 60" fill="none" xmlns="http://www.w3.org/2000/svg">
<path fill-rule="evenodd" clip-rule="evenodd" d="M60 30C60 37.9565 56.8393 45.5871 51.2132 51.2132C45.5871 56.8393 37.9565 60 30 60C22.0435 60 14.4129 56.8393 8.7868 51.2132C3.16071 45.5871 0 37.9565 0 30C0 22.0435 3.16071 14.4129 8.7868 8.7868C14.4129 3.16071 22.0435 0 30 0C37.9565 0 45.5871 3.16071 51.2132 8.7868C56.8393 14.4129 60 22.0435 60 30ZM28.6725 39.9225C28.3204 40.2746 28.1226 40.7521 28.1226 41.25C28.1226 41.7479 28.3204 42.2254 28.6725 42.5775C29.0246 42.9296 29.5021 43.1274 30 43.1274C30.4979 43.1274 30.9754 42.9296 31.3275 42.5775L42.5775 31.3275C42.7521 31.1533 42.8906 30.9464 42.9852 30.7186C43.0797 30.4908 43.1284 30.2466 43.1284 30C43.1284 29.7534 43.0797 29.5092 42.9852 29.2814C42.8906 29.0536 42.7521 28.8467 42.5775 28.6725L31.3275 17.4225C31.1532 17.2482 30.9462 17.1099 30.7184 17.0155C30.4907 16.9212 30.2465 16.8726 30 16.8726C29.7535 16.8726 29.5093 16.9212 29.2816 17.0155C29.0538 17.1099 28.8468 17.2482 28.6725 17.4225C28.4982 17.5968 28.3599 17.8038 28.2655 18.0316C28.1712 18.2593 28.1226 18.5035 28.1226 18.75C28.1226 18.9965 28.1712 19.2407 28.2655 19.4684C28.3599 19.6962 28.4982 19.9032 28.6725 20.0775L36.7238 28.125H18.75C18.2527 28.125 17.7758 28.3225 17.4242 28.6742C17.0725 29.0258 16.875 29.5027 16.875 30C16.875 30.4973 17.0725 30.9742 17.4242 31.3258C17.7758 31.6775 18.2527 31.875 18.75 31.875H36.7238L28.6725 39.9225Z" fill="white"/>
</svg>
