<svg width="30" height="25" viewBox="0 0 30 25" fill="none" xmlns="http://www.w3.org/2000/svg">
<path opacity="0.9" d="M30 2.8951C28.8968 3.371 27.6962 3.71351 26.4596 3.84691C27.7435 3.08415 28.7049 1.87911 29.1636 0.457893C27.9588 1.17459 26.6389 1.67716 25.2626 1.94329C24.6873 1.32832 23.9916 0.838399 23.2187 0.504068C22.4459 0.169736 21.6124 -0.00184515 20.7703 1.49636e-05C17.3633 1.49636e-05 14.6232 2.7617 14.6232 6.15072C14.6232 6.62662 14.6809 7.10253 14.7747 7.5604C9.67312 7.29361 5.12318 4.8564 2.09831 1.12488C1.54714 2.06629 1.25831 3.13819 1.26187 4.22907C1.26187 6.36343 2.34707 8.24542 4.00192 9.35226C3.0267 9.31385 2.0743 9.0458 1.22221 8.5699V8.64561C1.22221 11.6344 3.33494 14.1113 6.1507 14.6809C5.62201 14.8183 5.07814 14.8885 4.53191 14.8901C4.13172 14.8901 3.75315 14.8504 3.37099 14.7963C4.14974 17.2335 6.4175 19.0037 9.11789 19.0614C7.00517 20.7163 4.35885 21.6897 1.4854 21.6897C0.969836 21.6897 0.493931 21.6717 0 21.614C2.72563 23.3626 5.95962 24.3721 9.44237 24.3721C20.7487 24.3721 26.9355 15.0054 26.9355 6.87539C26.9355 6.6086 26.9355 6.3418 26.9174 6.07501C28.1144 5.19891 29.1636 4.1137 30 2.8951Z" fill="#FF5722"/>
</svg>
